<?xml version="1.0" standalone="no"?>
<!DOCTYPE svg PUBLIC "-//W3C//DTD SVG 20010904//EN"
 "http://www.w3.org/TR/2001/REC-SVG-20010904/DTD/svg10.dtd">
<svg version="1.0" xmlns="http://www.w3.org/2000/svg"
 width="2032.000000pt" height="2032.000000pt" viewBox="0 0 2032.000000 2032.000000"
 preserveAspectRatio="xMidYMid meet">
<metadata>
Created by potrace 1.14, written by Peter Selinger 2001-2017
</metadata>
<g transform="translate(0.000000,2032.000000) scale(0.100000,-0.100000)"
fill="#000000" stroke="none">
<path d="M12621 17550 c-319 -45 -589 -262 -686 -552 -37 -112 -45 -270 -20
-384 44 -203 170 -380 353 -498 141 -91 297 -136 476 -136 555 0 956 485 816
988 -76 272 -311 492 -602 562 -98 24 -247 32 -337 20z"/>
<path d="M6327 16789 c-443 -47 -807 -392 -893 -845 -23 -123 -15 -346 16
-459 61 -225 184 -416 356 -554 94 -76 181 -124 297 -166 128 -46 221 -59 374
-52 155 6 252 30 382 93 577 277 768 1017 400 1549 -137 199 -356 353 -583
410 -60 14 -231 37 -261 33 -5 0 -45 -4 -88 -9z"/>
<path d="M9891 15320 c-367 -52 -666 -326 -758 -696 -25 -103 -22 -314 6 -419
109 -407 459 -678 876 -678 398 0 739 250 858 629 178 564 -228 1141 -823
1168 -52 3 -124 1 -159 -4z"/>
<path d="M16015 14604 c-236 -56 -425 -205 -530 -419 -57 -115 -75 -184 -82
-315 -21 -401 258 -746 658 -816 272 -47 564 63 739 279 176 218 225 502 130
769 -40 115 -85 183 -190 289 -82 82 -109 103 -190 143 -131 64 -226 86 -364
85 -61 0 -138 -7 -171 -15z"/>
<path d="M3425 12669 c-502 -78 -834 -617 -719 -1170 101 -490 530 -812 964
-725 157 32 277 95 398 210 201 191 302 440 302 740 -1 513 -348 923 -805 950
-44 3 -107 1 -140 -5z"/>
<path d="M6610 11021 c-255 -55 -476 -220 -604 -452 -73 -132 -106 -268 -106
-430 0 -241 77 -438 239 -611 181 -194 398 -289 657 -289 147 0 258 23 381 81
266 125 450 359 509 650 22 109 15 302 -15 405 -94 330 -358 578 -686 646
-114 24 -262 23 -375 0z"/>
<path d="M12635 10915 c-426 -79 -727 -470 -702 -910 22 -373 255 -676 607
-791 78 -25 98 -28 240 -28 148 0 160 2 250 32 52 17 131 52 174 78 92 54 222
179 281 269 191 293 191 679 0 977 -56 87 -180 210 -258 256 -189 113 -395
154 -592 117z"/>
<path d="M16185 9230 c-154 -22 -284 -87 -395 -199 -234 -237 -256 -606 -52
-859 93 -115 191 -184 327 -229 70 -24 96 -27 210 -27 116 0 139 3 210 28 292
100 479 368 462 661 -14 241 -158 457 -372 560 -116 56 -269 81 -390 65z"/>
<path d="M9575 8210 c-359 -56 -666 -306 -763 -622 -52 -169 -50 -339 7 -505
75 -219 257 -413 485 -518 413 -191 934 -74 1203 270 388 495 124 1186 -517
1352 -107 28 -310 39 -415 23z"/>
<path d="M4175 6267 c2 -12 52 -310 110 -662 279 -1696 508 -2888 757 -3950
109 -465 197 -805 223 -862 29 -65 106 -143 172 -176 74 -38 456 -125 1054
-242 1721 -335 3405 -444 5079 -330 783 54 1636 168 2425 326 494 99 1105 244
1196 285 68 31 148 109 184 181 55 111 434 1715 690 2918 121 569 368 1815
362 1821 -3 3 -61 -12 -129 -34 -225 -73 -471 -127 -708 -153 -143 -16 -551
-17 -685 -1 -374 45 -708 134 -1023 273 -75 33 -144 63 -154 66 -10 3 -53 -25
-120 -79 -670 -543 -1611 -936 -2582 -1078 -586 -86 -1198 -77 -1749 25 -710
132 -1366 425 -1904 851 -165 130 -358 310 -484 450 -99 110 -151 172 -278
333 l-26 34 -85 -43 c-194 -97 -442 -178 -681 -220 -173 -31 -531 -39 -709
-16 -276 36 -555 119 -797 235 -127 62 -143 67 -138 48z"/>
</g>
</svg>
